# xmcd CD database file
#
# Track frame offsets:
#	180
#	10561
#	21462
#	31897
#	52385
#	58792
#	79687
#	90774
#	97344
#	113453
#	124111
#	138035
#
# Disc length: 2137 seconds
#
# Revision: 0
# Processed by: cddbd v1.5.1PL0 Copyright (c) Steve Scherf et al.
# Submitted via: CDex 1.51
#
DISCID=9108570c
DTITLE=Boesser-Ferrari/Sprengler - Shades of Blue
DYEAR=2000
DGENRE=Jazz
TTITLE0=My Funny Valentine
TTITLE1=High Time
TTITLE2=October In My Heart
TTITLE3=God Bless The Child
TTITLE4=Lea Meets The Tiger
TTITLE5=New York City High Key
TTITLE6=All Blues
TTITLE7=White Rabitt
TTITLE8=Come
TTITLE9=Why Should I Cry For You
TTITLE10=Isabelle´s Eyes
TTITLE11=Belfast Child
EXTD=YEAR: 2000
EXTT0=
EXTT1=
EXTT2=
EXTT3=
EXTT4=
EXTT5=
EXTT6=
EXTT7=
EXTT8=
EXTT9=
EXTT10=
EXTT11=
PLAYORDER=
